<svg width="120" height="42" viewBox="0 0 120 42" fill="none" xmlns="http://www.w3.org/2000/svg">
    <path d="M20.8282 0.00634766C9.32726 0.00634766 0.00390625 9.37908 0.00390625 20.9409C0.00390625 32.5028 9.32726 41.8755 20.8282 41.8755C32.3291 41.8755 41.6525 32.5028 41.6525 20.9409C41.6525 15.3887 39.4585 10.0639 35.5532 6.13794C31.6479 2.21195 26.3511 0.00634766 20.8282 0.00634766Z" fill="#D7153A"/>
    <path d="M33.7493 25.5923C33.531 25.2525 33.1666 25.0355 32.7653 25.0062C32.7653 25.0062 32.1809 24.9761 31.2035 24.9761H30.6751C29.7966 24.9878 28.3844 25.0376 26.5961 25.2064C26.5495 27.22 26.3713 29.2284 26.0625 31.2185C27.5072 31.7693 28.9961 32.4288 30.4981 33.1811C33.4343 29.4574 33.882 26.9871 33.9497 26.3133C33.9504 26.059 33.881 25.8094 33.7493 25.5923Z" fill="white"/>
    <path d="M15.891 22.3568C15.8311 22.133 15.7192 21.853 15.5175 21.853C15.409 21.8615 15.3063 21.9051 15.2246 21.9773C15.2246 21.9773 15.1153 22.0584 14.9214 22.2285C14.7274 22.3986 14.4424 22.6328 14.0545 22.9796C13.0699 23.8666 12.1316 24.8042 11.2433 25.7887C9.63199 27.5943 7.59251 30.253 6.23633 33.3684C8.75886 36.361 12.1313 38.5068 15.9014 39.5179C16.5274 37.2583 16.8476 34.6414 16.8476 31.7184C16.8343 28.8214 16.5634 25.9314 16.0381 23.0829C15.9509 22.6145 15.891 22.3581 15.891 22.3568Z" fill="white"/>
    <path d="M8.2394 16.6232L8.22899 16.6035C8.12747 16.3942 8.02726 16.1927 7.92834 15.9938C7.90621 15.9506 7.88409 15.9048 7.86326 15.863C7.75133 15.6405 7.64201 15.426 7.53398 15.2166C7.52487 15.2009 7.51706 15.1852 7.50925 15.1695C6.80903 13.8179 6.20773 12.7738 5.81728 12.1327C5.60122 11.7951 5.4919 11.6159 5.4919 11.6159C5.28886 11.3084 5.11706 11.2822 5.0689 11.2822C4.92574 11.2822 4.77736 11.4 4.62769 11.6237C4.62769 11.6237 4.50535 11.8043 4.30621 12.1327C4.01077 12.6312 3.72834 13.1179 3.4407 13.619C3.38864 13.7106 3.33398 13.8101 3.27801 13.9121L3.19472 14.0626L3.16608 14.1162C2.96999 14.4765 2.75307 14.8825 2.51532 15.3344C0.781161 21.0671 1.80373 27.2848 5.28105 32.1514C6.606 29.3501 8.5843 26.5605 11.1769 23.8521C10.3605 21.3788 9.37914 18.9637 8.2394 16.6232Z" fill="white"/>
    <path d="M25.0398 19.0989C25.0099 18.7901 24.9825 18.5193 24.9578 18.2812C24.9487 18.2 24.9409 18.1228 24.9331 18.0496C24.9331 18.0051 24.9227 17.9658 24.9188 17.9187C24.9148 17.8716 24.9096 17.8455 24.9057 17.8114C24.9018 17.7774 24.8966 17.729 24.8927 17.6911C24.8888 17.6531 24.8927 17.6466 24.8849 17.6243C24.8745 17.5445 24.8667 17.4752 24.8589 17.4202C24.8589 17.4202 24.8589 17.4085 24.8589 17.4045C24.8589 17.3731 24.8524 17.3496 24.8485 17.3286C24.8492 17.3217 24.8492 17.3147 24.8485 17.3077C24.8485 17.2711 24.8407 17.2462 24.8407 17.2449C24.7548 16.7922 24.5179 16.5619 24.1144 16.5488C23.9901 16.5522 23.8677 16.5797 23.7539 16.6299C23.7539 16.6299 23.5639 16.698 23.2255 16.8563C22.8936 16.9937 22.4537 17.1991 21.8979 17.4621L21.704 17.5511C21.3708 17.7133 21.0415 17.8808 20.7122 18.0522C19.3509 18.7522 18.0233 19.5085 16.7556 20.3118C16.576 20.4139 16.3977 20.5303 16.2207 20.6455C16.7062 20.8928 17.081 21.4096 17.2203 22.0494C17.2203 22.0677 17.2268 22.086 17.2333 22.1161C17.871 25.2762 18.1992 28.4915 18.2133 31.7159C18.2133 34.7357 17.884 37.452 17.2359 39.815C18.4181 40.048 19.6195 40.1685 20.8242 40.1748C21.1014 40.1748 21.3786 40.1657 21.6545 40.1539C21.7222 40.04 21.7925 39.9301 21.8589 39.815C24.6637 34.8731 25.2532 28.4318 25.2532 23.8956C25.2532 22.2823 25.1817 20.6795 25.0398 19.0989Z" fill="white"/>
    <path d="M25.8153 32.5952C25.2583 35.4161 24.4084 37.9021 23.2852 40.0047C26.7451 39.5565 30.016 38.1611 32.7407 35.9709C31.9142 35.4842 30.942 34.9412 29.85 34.3917C28.5371 33.7227 27.1904 33.1231 25.8153 32.5952Z" fill="white"/>
    <path d="M9.97902 17.1192C10.7235 18.7299 11.4029 20.3641 11.9925 21.9931C13.5455 20.7737 15.172 19.652 16.8628 18.6344C16.8432 18.5297 16.8224 18.429 16.8016 18.3269C16.8016 18.3269 16.8016 18.3177 16.8016 18.3138C16.7712 18.1673 16.7413 18.0233 16.7118 17.882C16.7124 17.8773 16.7124 17.8724 16.7118 17.8676C16.6805 17.7211 16.6506 17.5772 16.6194 17.4372C16.2406 15.7179 15.8593 14.3873 15.6341 13.6611C15.6341 13.6506 15.6276 13.6415 15.625 13.6297C15.6094 13.5826 15.5951 13.5355 15.5821 13.4989L15.5352 13.3523C15.529 13.3334 15.5238 13.3142 15.5196 13.2947C15.3777 12.9192 15.1447 12.7295 14.8285 12.7295C14.7849 12.7292 14.7413 12.7327 14.6983 12.74H14.6866C14.571 12.7542 14.4613 12.7994 14.369 12.8708C14.3625 12.8708 13.6272 13.3288 12.491 14.1465C11.8649 14.5992 10.8667 15.3476 9.64453 16.3708C9.76427 16.622 9.8788 16.8746 9.99464 17.1271L9.97902 17.1192Z" fill="white"/>
    <path d="M48.6191 17.0161L50.4959 14.7591C51.7974 15.8333 53.1562 16.5176 54.8053 16.5176C56.1068 16.5176 56.8877 15.9942 56.8877 15.1542V15.1123C56.8877 14.3037 56.3957 13.8903 53.9814 13.2714C51.0764 12.5243 49.1983 11.7196 49.1983 8.84112V8.80056C49.1983 6.17327 51.299 4.43701 54.2508 4.43701C56.3541 4.43701 58.1489 5.09907 59.6118 6.28056L57.9614 8.67626C56.682 7.78916 55.4248 7.2514 54.2079 7.2514C52.9909 7.2514 52.3532 7.8101 52.3532 8.5114V8.55196C52.3532 9.5071 52.9701 9.81327 55.4651 10.4583C58.3935 11.2211 60.0413 12.2757 60.0413 14.7983V14.8402C60.0413 17.7187 57.8573 19.3307 54.7467 19.3307C52.491 19.3405 50.3103 18.5168 48.6191 17.0161Z" fill="#002664"/>
    <path fill-rule="evenodd" clip-rule="evenodd" d="M61.0586 13.5997V13.6416C61.0586 17.0343 63.5133 19.3711 66.8321 19.3711C68.8339 19.3711 70.3189 18.586 71.3484 17.3038L69.5562 15.7128C68.6868 16.5187 67.9267 16.8511 66.8738 16.8511C65.4759 16.8511 64.4829 16.1053 64.1744 14.6765H71.8638C71.8859 14.3887 71.9041 14.0956 71.9041 13.8483C71.9041 10.7081 70.2148 7.82959 66.525 7.82959C63.3076 7.82959 61.0586 10.4346 61.0586 13.5997ZM66.5237 10.3574C67.8421 10.3574 68.6699 11.3034 68.8547 12.7126H64.1315C64.3801 11.2877 65.2222 10.3574 66.5237 10.3574Z" fill="#002664"/>
    <path d="M73.3672 8.03224H76.5038V10.2683C77.1442 8.73616 78.1737 7.74308 80.0297 7.82944V11.1149H79.8644C77.7819 11.1149 76.5038 12.3788 76.5038 15.0257V19.1223H73.3672V8.03224Z" fill="#002664"/>
    <path d="M81.123 8.03223H84.4419L86.9148 15.4614L89.4072 8.03223H92.6675L88.3152 19.2061H85.4714L81.123 8.03223Z" fill="#002664"/>
    <path fill-rule="evenodd" clip-rule="evenodd" d="M97.147 4.02051H93.8477V6.81004H97.147V4.02051ZM97.0637 8.0321H93.9284V19.1222H97.0637V8.0321Z" fill="#002664"/>
    <path d="M98.1992 13.6416V13.5997C98.1992 10.4346 100.608 7.82959 103.992 7.82959C106.075 7.82959 107.376 8.5309 108.404 9.69015L106.487 11.7587C105.786 11.0143 105.083 10.538 103.97 10.538C102.408 10.538 101.292 11.9236 101.292 13.5591V13.5997C101.292 15.3006 102.384 16.6614 104.096 16.6614C105.148 16.6614 105.868 16.2047 106.632 15.4838L108.466 17.3457C107.396 18.5232 106.157 19.3737 103.951 19.3737C100.633 19.3711 98.1992 16.8066 98.1992 13.6416Z" fill="#002664"/>
    <path fill-rule="evenodd" clip-rule="evenodd" d="M109.131 13.5997V13.6416C109.131 17.0343 111.583 19.3711 114.907 19.3711C116.906 19.3711 118.391 18.5834 119.422 17.3012L117.63 15.7128C116.762 16.5187 116.002 16.8511 114.947 16.8511C113.547 16.8511 112.556 16.1053 112.245 14.6765H119.939C119.959 14.3887 119.979 14.0956 119.979 13.8483C119.979 10.7081 118.29 7.82959 114.597 7.82959C111.38 7.82959 109.131 10.4346 109.131 13.5997ZM114.593 10.3574C115.914 10.3574 116.74 11.3034 116.922 12.7126H112.204C112.448 11.2877 113.292 10.3574 114.593 10.3574Z" fill="#002664"/>
    <path d="M49.0638 22.3804H51.9766L58.7067 31.2776V22.3804H61.8304V36.8226H59.1363L52.1822 27.6454V36.8226H49.0586L49.0638 22.3804Z" fill="#002664"/>
    <path d="M63.875 34.7199L65.7414 32.4707C67.0338 33.5436 68.3887 34.224 70.0364 34.224C71.3288 34.224 72.1071 33.7084 72.1071 32.8632V32.8213C72.1071 32.018 71.6151 31.6045 69.2151 30.9896C66.3193 30.2438 64.4503 29.4456 64.4503 26.5671V26.5266C64.4503 23.9098 66.5418 22.1748 69.4754 22.1748C71.5683 22.1748 73.3527 22.829 74.8117 24.0066L73.1704 26.3984C71.8989 25.5113 70.6468 24.9761 69.4364 24.9761C68.226 24.9761 67.5908 25.5322 67.5908 26.2335V26.2754C67.5908 27.2227 68.2065 27.5327 70.6884 28.1726C73.6012 28.9354 75.2438 29.9873 75.2438 32.5034V32.5453C75.2438 35.4107 73.0676 37.02 69.9713 37.02C67.7271 37.0321 65.5571 36.2133 63.875 34.7199Z" fill="#002664"/>
    <path d="M75.959 22.3804H79.3429L82.3169 32.1568L85.5395 22.3438H88.2466L91.4666 32.1568L94.4431 22.3804H97.7464L92.8436 36.926H90.0935L86.8527 27.4832L83.6106 36.9286H80.8618L75.959 22.3804Z" fill="#002664"/>
</svg>
